<svg xmlns="http://www.w3.org/2000/svg" width="58" height="58" viewBox="0 0 58 58" fill="none"><g clip-path="url(#clip0_1_34)"><path d="M28.4755 49.0273C28.2648 48.8166 27.9725 48.6953 27.6746 48.6953C27.3766 48.6953 27.0844 48.8165 26.8737 49.0273C26.663 49.2379 26.5417 49.5302 26.5417 49.8281C26.5417 50.1273 26.663 50.4183 26.8737 50.629C27.0844 50.8409 27.3766 50.9609 27.6746 50.9609C27.9725 50.9609 28.2648 50.8409 28.4755 50.629C28.6862 50.4183 28.8074 50.1262 28.8074 49.8281C28.8074 49.5302 28.686 49.2379 28.4755 49.0273Z" fill="white"/><path d="M33.869 38.5776V30.2421C33.869 29.8658 33.6821 29.5139 33.3702 29.3034C33.0583 29.0928 32.6622 29.0508 32.313 29.1913L12.7932 37.0527H6.50607C2.91869 37.0527 0 39.9714 0 43.559C0 47.1466 2.91869 50.0653 6.5063 50.0653H7.25497V56.868C7.25497 57.4936 7.76213 58.0008 8.38778 58.0008H13.0124C13.638 58.0008 14.1452 57.4936 14.1452 56.868V50.6117L32.3135 57.919C32.4498 57.9739 32.5933 58.0009 32.7361 58.0009C32.959 58.0009 33.1804 57.9351 33.3704 57.8068C33.6822 57.5962 33.869 57.2443 33.869 56.8681V48.5328C36.1407 48.0159 37.842 45.9812 37.842 43.5552C37.842 41.1293 36.1407 39.0945 33.869 38.5776ZM11.8794 55.7352H9.52059V50.0652H11.8796V55.7352H11.8794ZM11.8797 47.7995H6.5063C4.16795 47.7995 2.26562 45.8972 2.26562 43.559C2.26562 41.2206 4.16795 39.3183 6.5063 39.3183H11.8801L11.8797 47.7995ZM31.6035 55.1914H31.6034L14.1457 48.1699V38.9504L26.5417 33.9581V45.2001C26.5417 45.8256 27.0489 46.3329 27.6746 46.3329C28.3002 46.3329 28.8074 45.8256 28.8074 45.2001V33.0456L31.6035 31.9195V55.1914ZM33.869 46.1589V40.9514C34.8728 41.3898 35.5764 42.3916 35.5764 43.5551C35.5764 44.7186 34.8729 45.7205 33.869 46.1589Z" fill="white"/><path d="M48.6489 42.4549H42.2351C41.6095 42.4549 41.1023 42.9622 41.1023 43.5877C41.1023 44.2132 41.6095 44.7205 42.2351 44.7205H48.6489C49.2745 44.7205 49.7817 44.2132 49.7817 43.5877C49.7817 42.9622 49.2745 42.4549 48.6489 42.4549Z" fill="white"/><path d="M43.3889 34.154C42.9465 33.7117 42.2292 33.7117 41.7868 34.154L39.5744 36.3664C39.132 36.8087 39.132 37.526 39.5744 37.9685C39.7957 38.1896 40.0856 38.3003 40.3755 38.3003C40.6654 38.3003 40.9554 38.1896 41.1765 37.9685L43.3889 35.7561C43.8313 35.3138 43.8313 34.5965 43.3889 34.154Z" fill="white"/><path d="M43.4721 51.3136L41.1857 49.0271C40.7433 48.5849 40.026 48.5849 39.5836 49.0271C39.1412 49.4695 39.1412 50.1868 39.5836 50.6293L41.87 52.9157C42.0913 53.1368 42.3812 53.2475 42.671 53.2475C42.9609 53.2475 43.2509 53.1368 43.4721 52.9157C43.9144 52.4734 43.9144 51.7561 43.4721 51.3136Z" fill="white"/><path d="M53.4688 0H32.3985C29.9 0 27.8672 2.03272 27.8672 4.53124V4.98437H8.83603C7.33687 4.98437 6.11729 6.20406 6.11729 7.70311V25.6015C6.11729 27.1006 7.33687 28.3203 8.83603 28.3203H10.0066V31.7942C10.0066 32.2525 10.2826 32.6655 10.7058 32.8409C10.846 32.8989 10.9931 32.9271 11.1391 32.9271C11.4339 32.9271 11.7237 32.812 11.9404 32.5953L16.2154 28.3203H38.7173C40.2165 28.3203 41.436 27.1006 41.436 25.6015V22.2031H53.4688C55.9673 22.2031 58 20.1704 58 17.6718V4.53124C57.9999 2.03272 55.9673 0 53.4688 0ZM39.1704 25.6015C39.1704 25.8514 38.9672 26.0546 38.7173 26.0546H15.7462C15.4458 26.0546 15.1576 26.174 14.9452 26.3864L12.2723 29.0594V27.1874C12.2723 26.5619 11.7651 26.0546 11.1395 26.0546H8.83603C8.58613 26.0546 8.38291 25.8514 8.38291 25.6015V7.70311C8.38291 7.45321 8.58613 7.24999 8.83603 7.24999H27.8672V17.6718C27.8672 20.1704 29.9 22.2031 32.3985 22.2031H39.1704V25.6015ZM55.7344 17.6718C55.7344 18.9211 54.718 19.9375 53.4688 19.9375H32.3985C31.1492 19.9375 30.1329 18.9211 30.1329 17.6718V4.53124C30.1329 3.28198 31.1492 2.26562 32.3985 2.26562H53.4688C54.718 2.26562 55.7344 3.28198 55.7344 4.53124V17.6718Z" fill="white"/><path d="M47.4846 10.1202L39.7317 5.64401C39.3812 5.44158 38.9494 5.44158 38.5989 5.64401C38.2484 5.84633 38.0325 6.22039 38.0325 6.62503V15.5773C38.0325 15.9819 38.2484 16.356 38.5989 16.5583C38.7741 16.6596 38.9696 16.7101 39.1653 16.7101C39.3609 16.7101 39.5564 16.6596 39.7317 16.5583L47.4846 12.0821C47.8351 11.8798 48.051 11.5057 48.051 11.1011C48.051 10.6965 47.8352 10.3225 47.4846 10.1202ZM40.2981 13.6153V8.58717L44.6526 11.1012L40.2981 13.6153Z" fill="white"/><path d="M24.3001 11.8945H12.972C12.3464 11.8945 11.8392 12.4018 11.8392 13.0273C11.8392 13.6529 12.3464 14.1601 12.972 14.1601H24.3001C24.9258 14.1601 25.4329 13.6529 25.4329 13.0273C25.4329 12.4018 24.9258 11.8945 24.3001 11.8945Z" fill="white"/><path d="M25.1009 18.5702C24.8902 18.3593 24.598 18.2383 24.3 18.2383C24.0021 18.2383 23.7098 18.3593 23.4991 18.5702C23.2884 18.7809 23.1672 19.0731 23.1672 19.3711C23.1672 19.669 23.2884 19.9613 23.4991 20.1718C23.7098 20.3825 24.0021 20.5039 24.3 20.5039C24.5991 20.5039 24.8902 20.3827 25.1009 20.1718C25.3116 19.9613 25.4328 19.669 25.4328 19.3711C25.4328 19.0731 25.3116 18.7809 25.1009 18.5702Z" fill="white"/><path d="M20.0509 18.2383H12.972C12.3464 18.2383 11.8392 18.7455 11.8392 19.3711C11.8392 19.9966 12.3464 20.5039 12.972 20.5039H20.0509C20.6765 20.5039 21.1837 19.9966 21.1837 19.3711C21.1837 18.7455 20.6765 18.2383 20.0509 18.2383Z" fill="white"/></g><defs><clipPath id="clip0_1_34"><rect width="58" height="58" fill="white"/></clipPath></defs></svg>